<mxfile host="Electron" modified="2024-07-19T15:54:02.413Z" agent="Mozilla/5.0 (Windows NT 10.0; Win64; x64) AppleWebKit/537.36 (KHTML, like Gecko) draw.io/24.6.1 Chrome/124.0.6367.207 Electron/30.0.6 Safari/537.36" etag="bbBlidg6s7fd5uP7Wa4h" version="24.6.1" type="device">
  <diagram id="C5RBs43oDa-KdzZeNtuy" name="Page-1">
    <mxGraphModel dx="1562" dy="909" grid="1" gridSize="10" guides="1" tooltips="1" connect="1" arrows="1" fold="1" page="1" pageScale="1" pageWidth="827" pageHeight="1169" math="0" shadow="0">
      <root>
        <mxCell id="WIyWlLk6GJQsqaUBKTNV-0" />
        <mxCell id="WIyWlLk6GJQsqaUBKTNV-1" parent="WIyWlLk6GJQsqaUBKTNV-0" />
        <mxCell id="mjdyPSImwGVj4HmK0E7h-14" style="edgeStyle=orthogonalEdgeStyle;rounded=0;orthogonalLoop=1;jettySize=auto;html=1;exitX=0.5;exitY=1;exitDx=0;exitDy=0;entryX=0.5;entryY=0;entryDx=0;entryDy=0;endArrow=none;endFill=0;" edge="1" parent="WIyWlLk6GJQsqaUBKTNV-1" source="mjdyPSImwGVj4HmK0E7h-1" target="mjdyPSImwGVj4HmK0E7h-2">
          <mxGeometry relative="1" as="geometry" />
        </mxCell>
        <mxCell id="mjdyPSImwGVj4HmK0E7h-1" value="Packet" style="shape=parallelogram;html=1;strokeWidth=2;perimeter=parallelogramPerimeter;whiteSpace=wrap;rounded=1;arcSize=12;size=0.23;" vertex="1" parent="WIyWlLk6GJQsqaUBKTNV-1">
          <mxGeometry x="350" y="70" width="100" height="60" as="geometry" />
        </mxCell>
        <mxCell id="mjdyPSImwGVj4HmK0E7h-13" style="edgeStyle=orthogonalEdgeStyle;rounded=0;orthogonalLoop=1;jettySize=auto;html=1;exitX=0.5;exitY=1;exitDx=0;exitDy=0;entryX=0.5;entryY=0;entryDx=0;entryDy=0;endArrow=none;endFill=0;" edge="1" parent="WIyWlLk6GJQsqaUBKTNV-1" source="mjdyPSImwGVj4HmK0E7h-2" target="mjdyPSImwGVj4HmK0E7h-3">
          <mxGeometry relative="1" as="geometry" />
        </mxCell>
        <mxCell id="mjdyPSImwGVj4HmK0E7h-2" value="clsact throttler BPF" style="rounded=1;whiteSpace=wrap;html=1;absoluteArcSize=1;arcSize=14;strokeWidth=2;" vertex="1" parent="WIyWlLk6GJQsqaUBKTNV-1">
          <mxGeometry x="350" y="180" width="100" height="60" as="geometry" />
        </mxCell>
        <mxCell id="mjdyPSImwGVj4HmK0E7h-5" value="" style="edgeStyle=orthogonalEdgeStyle;rounded=0;orthogonalLoop=1;jettySize=auto;html=1;exitX=0.25;exitY=1;exitDx=0;exitDy=0;curved=1;endArrow=none;endFill=0;" edge="1" parent="WIyWlLk6GJQsqaUBKTNV-1" source="mjdyPSImwGVj4HmK0E7h-3" target="mjdyPSImwGVj4HmK0E7h-4">
          <mxGeometry relative="1" as="geometry" />
        </mxCell>
        <mxCell id="mjdyPSImwGVj4HmK0E7h-7" style="edgeStyle=orthogonalEdgeStyle;rounded=0;orthogonalLoop=1;jettySize=auto;html=1;curved=1;endArrow=none;endFill=0;" edge="1" parent="WIyWlLk6GJQsqaUBKTNV-1" source="mjdyPSImwGVj4HmK0E7h-3" target="mjdyPSImwGVj4HmK0E7h-6">
          <mxGeometry relative="1" as="geometry" />
        </mxCell>
        <mxCell id="mjdyPSImwGVj4HmK0E7h-12" style="edgeStyle=orthogonalEdgeStyle;rounded=0;orthogonalLoop=1;jettySize=auto;html=1;exitX=0.75;exitY=1;exitDx=0;exitDy=0;entryX=0.5;entryY=0;entryDx=0;entryDy=0;curved=1;endArrow=none;endFill=0;" edge="1" parent="WIyWlLk6GJQsqaUBKTNV-1" source="mjdyPSImwGVj4HmK0E7h-3" target="mjdyPSImwGVj4HmK0E7h-8">
          <mxGeometry relative="1" as="geometry" />
        </mxCell>
        <mxCell id="mjdyPSImwGVj4HmK0E7h-3" value="HTB 1:" style="rounded=1;whiteSpace=wrap;html=1;absoluteArcSize=1;arcSize=14;strokeWidth=2;" vertex="1" parent="WIyWlLk6GJQsqaUBKTNV-1">
          <mxGeometry x="350" y="280" width="100" height="60" as="geometry" />
        </mxCell>
        <mxCell id="mjdyPSImwGVj4HmK0E7h-10" value="" style="edgeStyle=orthogonalEdgeStyle;rounded=0;orthogonalLoop=1;jettySize=auto;html=1;endArrow=none;endFill=0;" edge="1" parent="WIyWlLk6GJQsqaUBKTNV-1" source="mjdyPSImwGVj4HmK0E7h-4">
          <mxGeometry relative="1" as="geometry">
            <mxPoint x="200" y="555" as="targetPoint" />
          </mxGeometry>
        </mxCell>
        <mxCell id="mjdyPSImwGVj4HmK0E7h-4" value="HTB 10:" style="rounded=1;whiteSpace=wrap;html=1;absoluteArcSize=1;arcSize=14;strokeWidth=2;" vertex="1" parent="WIyWlLk6GJQsqaUBKTNV-1">
          <mxGeometry x="150" y="420" width="100" height="60" as="geometry" />
        </mxCell>
        <mxCell id="mjdyPSImwGVj4HmK0E7h-18" style="edgeStyle=orthogonalEdgeStyle;rounded=0;orthogonalLoop=1;jettySize=auto;html=1;exitX=0.5;exitY=1;exitDx=0;exitDy=0;entryX=0.5;entryY=0;entryDx=0;entryDy=0;endArrow=none;endFill=0;" edge="1" parent="WIyWlLk6GJQsqaUBKTNV-1" source="mjdyPSImwGVj4HmK0E7h-6" target="mjdyPSImwGVj4HmK0E7h-16">
          <mxGeometry relative="1" as="geometry" />
        </mxCell>
        <mxCell id="mjdyPSImwGVj4HmK0E7h-6" value="HTB 20:" style="rounded=1;whiteSpace=wrap;html=1;absoluteArcSize=1;arcSize=14;strokeWidth=2;" vertex="1" parent="WIyWlLk6GJQsqaUBKTNV-1">
          <mxGeometry x="350" y="420" width="100" height="60" as="geometry" />
        </mxCell>
        <mxCell id="mjdyPSImwGVj4HmK0E7h-19" style="edgeStyle=orthogonalEdgeStyle;rounded=0;orthogonalLoop=1;jettySize=auto;html=1;exitX=0.5;exitY=1;exitDx=0;exitDy=0;entryX=0.5;entryY=0;entryDx=0;entryDy=0;endArrow=none;endFill=0;" edge="1" parent="WIyWlLk6GJQsqaUBKTNV-1" source="mjdyPSImwGVj4HmK0E7h-8" target="mjdyPSImwGVj4HmK0E7h-17">
          <mxGeometry relative="1" as="geometry" />
        </mxCell>
        <mxCell id="mjdyPSImwGVj4HmK0E7h-8" value="HTB n *10:" style="rounded=1;whiteSpace=wrap;html=1;absoluteArcSize=1;arcSize=14;strokeWidth=2;" vertex="1" parent="WIyWlLk6GJQsqaUBKTNV-1">
          <mxGeometry x="560" y="420" width="100" height="60" as="geometry" />
        </mxCell>
        <mxCell id="mjdyPSImwGVj4HmK0E7h-11" value="" style="endArrow=none;dashed=1;html=1;dashPattern=1 3;strokeWidth=2;rounded=0;" edge="1" parent="WIyWlLk6GJQsqaUBKTNV-1">
          <mxGeometry width="50" height="50" relative="1" as="geometry">
            <mxPoint x="470" y="450" as="sourcePoint" />
            <mxPoint x="550" y="450" as="targetPoint" />
          </mxGeometry>
        </mxCell>
        <mxCell id="mjdyPSImwGVj4HmK0E7h-15" value="Prio&lt;div&gt;(default)&lt;/div&gt;" style="rounded=1;whiteSpace=wrap;html=1;absoluteArcSize=1;arcSize=14;strokeWidth=2;" vertex="1" parent="WIyWlLk6GJQsqaUBKTNV-1">
          <mxGeometry x="150" y="555" width="100" height="60" as="geometry" />
        </mxCell>
        <mxCell id="mjdyPSImwGVj4HmK0E7h-16" value="Netem 1&lt;div&gt;(min throttling)&lt;/div&gt;" style="rounded=1;whiteSpace=wrap;html=1;absoluteArcSize=1;arcSize=14;strokeWidth=2;" vertex="1" parent="WIyWlLk6GJQsqaUBKTNV-1">
          <mxGeometry x="350" y="555" width="100" height="60" as="geometry" />
        </mxCell>
        <mxCell id="mjdyPSImwGVj4HmK0E7h-17" value="Netem n-1&lt;div&gt;(max throttling)&lt;/div&gt;" style="rounded=1;whiteSpace=wrap;html=1;absoluteArcSize=1;arcSize=14;strokeWidth=2;" vertex="1" parent="WIyWlLk6GJQsqaUBKTNV-1">
          <mxGeometry x="560" y="555" width="100" height="60" as="geometry" />
        </mxCell>
      </root>
    </mxGraphModel>
  </diagram>
</mxfile>
